<?xml version="1.0" encoding="UTF-8"?>
<svg width="700pt" height="700pt" version="1.1" viewBox="0 0 700 700" xmlns="http://www.w3.org/2000/svg">
 <path d="m181.3 529.2c-2.1016 0-3.5-0.69922-4.8984-2.1016-94.5-94.5-94.5-247.8 0-342.3 2.8008-2.8008 7-2.8008 9.8008 0s2.8008 7 0 9.8008c-88.898 88.898-88.898 233.8 0 322.7 2.8008 2.8008 2.8008 7 0 9.8008-1.4023 1.4023-2.8047 2.1016-4.9023 2.1016z"/>
 <path d="m515.9 527.1c-2.1016 0-3.5-0.69922-4.8984-2.1016-2.8008-2.8008-2.8008-7 0-9.8008 88.898-88.898 88.898-233.8 0-322.7-2.8008-2.8008-2.8008-7 0-9.8008s7-2.8008 9.8008 0c94.5 94.5 94.5 247.8 0 342.3-1.4023 1.3984-3.5 2.1016-4.9023 2.1016z"/>
 <path d="m349.3 536.9c-100.1 0-181.3-81.199-181.3-181.3 0.69922-100.1 81.898-181.3 181.3-181.3 100.1 0 181.3 81.199 181.3 181.3 0 50.398-21 99.398-57.398 130.9-2.8008 2.8008-7 2.1016-9.8008-0.69922-2.8008-2.8008-2.1016-7 0.69922-9.8008 32.898-28.699 52.5-74.199 52.5-120.4 0-92.398-74.898-167.3-167.3-167.3-91 0-167.3 76.301-167.3 167.3 0 92.398 74.898 167.3 167.3 167.3 4.1992 0 7 2.8008 7 7 0 4.1992-2.8008 6.9961-7 6.9961z"/>
 <path d="m349.3 476c-66.5 0-120.4-53.898-120.4-120.4s53.898-120.4 120.4-120.4c4.1992 0 7 2.8008 7 7s-2.8008 7-7 7c-58.801 0-106.4 47.602-106.4 106.4 0 58.801 47.602 106.4 106.4 106.4 58.801 0 106.4-47.602 106.4-106.4 0-4.1992 2.8008-7 7-7s7 2.8008 7 7c0.69922 66.5-53.898 120.4-120.4 120.4z"/>
 <path d="m349.3 415.1c-32.898 0-59.5-26.602-59.5-59.5 0-32.898 26.602-59.5 59.5-59.5 32.898 0 59.5 26.602 59.5 59.5 0.69922 32.898-26.602 59.5-59.5 59.5zm0-105c-25.199 0-45.5 20.301-45.5 45.5 0 25.199 20.301 45.5 45.5 45.5s46.199-20.301 46.199-45.5c0-25.203-21-45.5-46.199-45.5z"/>
</svg>
