<?xml version="1.0" encoding="UTF-8" standalone="no"?><!DOCTYPE svg PUBLIC "-//W3C//DTD SVG 1.1//EN" "http://www.w3.org/Graphics/SVG/1.1/DTD/svg11.dtd"><svg width="100%" height="100%" viewBox="0 0 960 960" version="1.1" xmlns="http://www.w3.org/2000/svg" xmlns:xlink="http://www.w3.org/1999/xlink" xml:space="preserve" xmlns:serif="http://www.serif.com/" style="fill-rule:evenodd;clip-rule:evenodd;stroke-linejoin:round;stroke-miterlimit:2;"><path d="M385.683,137.434c-14.92,2.4 -29.667,5.316 -44.243,9.088c-18.522,4.802 -36.871,10.976 -54.534,18.521c-36.355,15.263 -70.31,36.185 -100.491,61.564c-32.411,27.438 -60.364,60.536 -81.8,97.234c-21.264,36.184 -36.354,75.626 -44.758,116.782c-4.287,21.264 -6.86,42.701 -7.031,64.479c-0.172,16.977 0.514,33.954 2.058,50.761c4.287,43.728 16.462,86.943 35.154,126.735c16.12,34.125 37.041,65.851 62.078,93.975c25.037,28.124 54.19,52.647 86.259,72.367c35.67,21.778 74.597,38.07 115.411,46.987c32.583,7.203 66.193,10.633 99.634,8.918c32.412,-1.544 64.823,-6.517 95.862,-16.291c19.721,-6.174 38.927,-13.548 57.62,-22.809c18.349,-9.088 36.013,-19.721 52.647,-31.553c33.098,-23.665 62.422,-52.475 86.601,-85.4c24.866,-33.612 44.073,-71.511 56.763,-111.295c13.204,-41.5 19.377,-85.573 17.835,-129.131c-1.372,-42.528 -9.604,-84.714 -24.866,-124.5c-14.748,-38.241 -35.84,-74.081 -62.25,-105.464c-13.376,-15.777 -28.466,-29.839 -44.415,-43.043c-16.12,-13.376 -33.097,-25.38 -51.446,-35.326c-15.777,-8.575 -32.24,-15.777 -48.874,-21.951c-8.232,-3.086 -16.463,-6.002 -25.038,-8.402c-9.088,-2.573 -18.521,-4.459 -27.78,-6.174c-14.576,-2.572 -29.667,-3.601 -44.415,-2.229c6.517,1.2 12.862,2.229 19.206,3.772c7.374,1.887 14.576,4.288 21.608,7.031c14.92,5.488 29.324,12.348 43.729,18.864c18.349,8.403 35.84,18.177 52.817,28.81c8.746,5.488 17.321,11.147 25.552,17.321c8.231,6.174 16.12,13.204 23.837,20.236c15.604,14.062 29.496,29.324 41.842,46.301c12.69,17.321 23.837,35.67 33.097,55.048c18.864,38.755 30.182,81.113 33.954,123.985c3.773,43.901 -0.514,88.66 -13.033,130.849c-11.833,40.128 -31.039,78.199 -56.248,111.639c-24.523,32.411 -54.704,60.535 -88.83,82.656c-34.812,23.151 -74.082,39.099 -115.068,47.845c-10.632,2.23 -21.607,3.945 -32.411,5.145c-9.26,1.029 -18.691,1.886 -28.124,2.229c-19.378,0.515 -39.441,-0.686 -58.649,-3.601c-42.186,-6.345 -82.828,-20.064 -119.869,-41.328c-33.097,-18.864 -62.936,-43.386 -88.143,-72.197c-25.38,-28.81 -45.788,-61.735 -60.192,-97.404c-8.403,-20.578 -14.576,-42.186 -18.692,-64.136c-2.058,-11.147 -3.772,-22.293 -4.63,-33.44c-0.514,-5.488 -0.514,-10.804 -1.029,-16.291c0,-2.229 0.172,-4.459 0.172,-6.688c-0.686,-37.213 4.115,-74.597 15.262,-110.094c12.004,-38.241 31.383,-74.254 56.591,-105.465c26.409,-32.753 58.991,-60.021 95.689,-80.599c31.211,-17.491 64.823,-30.01 99.805,-37.555c8.06,-1.715 16.121,-3.087 24.18,-4.459c7.374,-1.2 14.234,-5.316 18.349,-11.661c8.917,-13.376 2.915,-32.067 -11.49,-38.585c-4.973,-2.229 -10.289,-2.915 -15.262,-2.058l-0.001,-0.013Z" style="fill-rule:nonzero;"/><path d="M951.874,869.484c-1.72,-5.566 -5.586,-10.221 -10.74,-12.939c-5.155,-2.719 -11.176,-3.273 -16.743,-1.544c-13.136,4.081 -26.81,6.154 -40.564,6.144c-56.629,0 -101.848,-30.907 -127.136,-86.748c-8.78,-20.456 -221.523,-502.136 -249.883,-562.982l-5.179,-11.152c-29.594,-64.797 -79.291,-173.232 -223.291,-173.232c-7.84,0 -15.086,4.184 -19.006,10.975c-3.924,6.791 -3.924,15.16 0,21.951c3.92,6.791 11.166,10.975 19.006,10.975c115.807,-0 154.881,85.342 183.329,147.594l5.267,11.416c5.443,11.676 18.09,39.776 35.12,77.439l-319.421,564.914c-3.562,6.796 -3.312,14.964 0.652,21.529c3.968,6.57 11.078,10.593 18.75,10.602c7.673,0.015 14.797,-3.978 18.79,-10.534l303.266,-536.554c74.189,166.823 190.792,431.193 192.46,434.968c32.397,71.647 93.421,112.736 166.823,112.736c18.188,0.024 36.272,-2.7 53.647,-8.08c5.634,-1.641 10.372,-5.478 13.16,-10.637c2.788,-5.164 3.395,-11.23 1.68,-16.845l0.013,0.004Z" style="fill:#020202;fill-rule:nonzero;"/></svg>